# xmcd
#
# Track frame offsets:
# 150
# 27382
# 47062
# 65265
# 75157
# 89067
# 105032
# 115767
# 131890
# 147585
# 160642
# 179982
# 202140
#
# Disc length: 2845 seconds
#
#
# Revision: 0
# Processed by: cddbd v1.5.2PL0 Copyright (c) Steve Scherf et al.
# Submitted via: FreeRIP 2.96 
#
DISCID=b50b1b0d
DTITLE=Mulheres em Pixinguinha
DYEAR=1999
DGENRE=Folk
TTITLE0=Naquele Tempo
TTITLE1=Cheguei
TTITLE2=Lamentos
TTITLE3=De Mal a Pior
TTITLE4=O Gato e o Canário
TTITLE5=Ingênuo
TTITLE6=Ainda me Recordo
TTITLE7=Mundo Melhor
TTITLE8=Página de Dor
TTITLE9=Chorei
TTITLE10=Rosa
TTITLE11=Um a Zero
TTITLE12=Carinhoso
EXTD=
EXTT0=
EXTT1=
EXTT2=
EXTT3=
EXTT4=
EXTT5=
EXTT6=
EXTT7=
EXTT8=
EXTT9=
EXTT10=
EXTT11=
EXTT12=
PLAYORDER=
